<svg width="356" height="299" viewBox="0 0 356 299" fill="none" xmlns="http://www.w3.org/2000/svg">
<path d="M170.184 51.2363L66.124 298.376H63.1906L72.3562 276.378L0 105.869L28.5309 105.486L76.7531 220.014L149.087 42.1946L134.017 33.1529L182.239 0L185.253 57.264L170.184 51.2363Z" fill="url(#paint0_linear_137_287)"/>
<path d="M340.759 237.389C340.278 237.389 339.956 237.148 339.796 236.666L332.812 214.429C332.705 214.215 332.544 214.108 332.33 214.108H325.105C324.837 214.108 324.704 214.242 324.704 214.51L321.974 236.426C321.921 236.693 321.787 236.934 321.573 237.148C321.412 237.309 321.198 237.389 320.931 237.389H311.779C311.511 237.389 311.297 237.309 311.137 237.148C310.976 236.934 310.923 236.693 310.976 236.426L317.639 182.158C317.693 181.89 317.8 181.676 317.96 181.515C318.174 181.301 318.415 181.194 318.683 181.194H341C345.549 181.194 349.135 182.479 351.757 185.048C354.38 187.617 355.691 191.069 355.691 195.404C355.691 195.939 355.637 196.849 355.53 198.133C355.102 201.772 353.844 204.903 351.757 207.526C349.67 210.094 346.994 211.914 343.729 212.984C343.408 213.091 343.301 213.279 343.408 213.546L351.195 236.265C351.249 236.372 351.276 236.506 351.276 236.666C351.276 237.148 350.981 237.389 350.393 237.389H340.759ZM327.915 190.908C327.808 190.908 327.701 190.962 327.594 191.069C327.54 191.122 327.513 191.202 327.513 191.309L325.828 205.037C325.828 205.305 325.935 205.438 326.149 205.438H336.344C338.752 205.438 340.759 204.689 342.365 203.191C343.97 201.638 344.773 199.658 344.773 197.25C344.773 195.323 344.158 193.798 342.927 192.674C341.749 191.497 340.17 190.908 338.19 190.908H327.915Z" fill="#C7B08B"/>
<path d="M280.989 238.272C275.423 238.272 270.981 236.72 267.663 233.616C264.398 230.458 262.766 226.257 262.766 221.012C262.766 220.049 262.846 219.005 263.007 217.881L265.094 200.702C265.576 196.742 266.86 193.236 268.947 190.186C271.035 187.135 273.711 184.78 276.975 183.121C280.293 181.408 283.986 180.552 288.054 180.552C293.673 180.552 298.115 182.104 301.38 185.208C304.698 188.312 306.357 192.433 306.357 197.571C306.357 198.588 306.277 199.632 306.116 200.702L304.029 217.881C303.547 221.895 302.263 225.454 300.176 228.558C298.088 231.609 295.386 233.99 292.068 235.703C288.749 237.416 285.057 238.272 280.989 238.272ZM282.193 228.558C285.083 228.558 287.492 227.622 289.418 225.749C291.399 223.875 292.603 221.387 293.031 218.283L295.198 200.622C295.252 200.247 295.279 199.685 295.279 198.936C295.279 196.26 294.529 194.146 293.031 192.594C291.532 191.042 289.472 190.266 286.849 190.266C284.013 190.266 281.605 191.229 279.624 193.156C277.644 195.029 276.467 197.518 276.092 200.622L273.925 218.283C273.871 218.657 273.844 219.219 273.844 219.969C273.844 222.591 274.594 224.678 276.092 226.23C277.591 227.782 279.624 228.558 282.193 228.558Z" fill="#C7B08B"/>
<path d="M262.119 181.194C262.386 181.194 262.601 181.301 262.761 181.515C262.922 181.676 262.975 181.89 262.922 182.158L261.958 190.025C261.958 190.293 261.851 190.533 261.637 190.747C261.423 190.908 261.182 190.988 260.915 190.988H247.027C246.813 190.988 246.652 191.122 246.545 191.39L241.006 236.426C240.952 236.693 240.818 236.934 240.604 237.148C240.444 237.309 240.23 237.389 239.962 237.389H230.891C230.623 237.389 230.409 237.309 230.249 237.148C230.088 236.934 230.034 236.693 230.088 236.426L235.547 191.39C235.654 191.122 235.547 190.988 235.226 190.988H221.659C221.391 190.988 221.177 190.908 221.017 190.747C220.856 190.533 220.802 190.293 220.856 190.025L221.819 182.158C221.873 181.89 221.98 181.676 222.14 181.515C222.355 181.301 222.595 181.194 222.863 181.194H262.119Z" fill="#C7B08B"/>
<path d="M189.144 238.031C183.578 238.031 179.189 236.533 175.978 233.536C172.767 230.539 171.161 226.525 171.161 221.494C171.161 220.209 171.215 219.219 171.322 218.524L173.57 199.979C174.051 196.126 175.309 192.728 177.343 189.784C179.377 186.841 182.026 184.566 185.29 182.96C188.555 181.355 192.194 180.552 196.208 180.552C201.774 180.552 206.163 181.997 209.374 184.887C212.638 187.777 214.271 191.631 214.271 196.447C214.271 197.036 214.217 197.919 214.11 199.096C214.003 199.632 213.655 199.926 213.067 199.979L203.915 200.541H203.754C203.219 200.541 203.005 200.247 203.112 199.658C203.166 199.337 203.192 198.882 203.192 198.294C203.192 195.832 202.443 193.878 200.945 192.433C199.5 190.988 197.519 190.266 195.004 190.266C192.221 190.266 189.866 191.149 187.94 192.915C186.066 194.628 184.969 196.875 184.648 199.658L182.24 219.005C182.186 219.326 182.16 219.781 182.16 220.37C182.16 222.778 182.882 224.705 184.327 226.15C185.772 227.595 187.779 228.318 190.348 228.318C193.131 228.318 195.459 227.461 197.332 225.749C199.205 224.036 200.329 221.788 200.704 219.005C200.811 218.417 201.159 218.122 201.747 218.122L210.819 218.524C211.086 218.524 211.3 218.604 211.461 218.764C211.622 218.871 211.675 219.059 211.622 219.326C211.193 223.019 209.962 226.284 207.929 229.12C205.895 231.957 203.246 234.151 199.981 235.703C196.77 237.255 193.158 238.031 189.144 238.031Z" fill="#C7B08B"/>
<path d="M167.438 189.945C167.384 190.212 167.251 190.453 167.037 190.667C166.876 190.828 166.662 190.908 166.394 190.908H140.786C140.679 190.908 140.572 190.962 140.465 191.069C140.411 191.122 140.384 191.202 140.384 191.309L138.859 203.752C138.859 204.02 138.966 204.154 139.18 204.154H155.958C156.226 204.154 156.44 204.261 156.6 204.475C156.761 204.636 156.815 204.85 156.761 205.117L155.798 212.904C155.744 213.172 155.61 213.413 155.396 213.627C155.236 213.787 155.022 213.867 154.754 213.867H137.976C137.708 213.867 137.575 214.001 137.575 214.269L135.969 227.274C135.969 227.541 136.076 227.675 136.29 227.675H161.819C162.407 227.675 162.702 227.996 162.702 228.639L161.738 236.426C161.685 236.693 161.551 236.934 161.337 237.148C161.176 237.309 160.962 237.389 160.695 237.389H124.65C124.382 237.389 124.168 237.309 124.008 237.148C123.847 236.934 123.794 236.693 123.847 236.426L130.51 182.158C130.564 181.89 130.671 181.676 130.831 181.515C131.045 181.301 131.286 181.194 131.554 181.194H167.518C167.786 181.194 168 181.301 168.16 181.515C168.375 181.676 168.455 181.89 168.401 182.158L167.438 189.945Z" fill="#C7B08B"/>
<path d="M334.887 297.725C334.601 297.725 334.458 297.582 334.458 297.297V268.13C334.458 267.844 334.601 267.701 334.887 267.701H337.075C337.361 267.701 337.504 267.844 337.504 268.13V294.895C337.504 295.009 337.561 295.066 337.675 295.066H352.816C353.102 295.066 353.245 295.209 353.245 295.495V297.297C353.245 297.582 353.102 297.725 352.816 297.725H334.887Z" fill="black"/>
<path d="M320.2 297.725C319.943 297.725 319.771 297.611 319.685 297.382L317.97 291.978C317.941 291.892 317.884 291.849 317.798 291.849H304.973C304.887 291.849 304.83 291.892 304.801 291.978L303.086 297.382C303 297.611 302.828 297.725 302.571 297.725H300.255C299.94 297.725 299.826 297.568 299.912 297.254L309.391 268.044C309.477 267.815 309.648 267.701 309.906 267.701H312.822C313.08 267.701 313.251 267.815 313.337 268.044L322.859 297.254L322.902 297.425C322.902 297.625 322.773 297.725 322.516 297.725H320.2ZM305.659 289.147C305.631 289.204 305.631 289.261 305.659 289.319C305.717 289.347 305.774 289.361 305.831 289.361H316.897C316.954 289.361 316.997 289.347 317.026 289.319C317.083 289.261 317.097 289.204 317.069 289.147L311.493 271.647C311.464 271.59 311.421 271.561 311.364 271.561C311.307 271.561 311.264 271.59 311.235 271.647L305.659 289.147Z" fill="black"/>
<path d="M292.463 267.701C292.748 267.701 292.891 267.844 292.891 268.13V269.974C292.891 270.26 292.748 270.403 292.463 270.403H284.056C283.941 270.403 283.884 270.46 283.884 270.574V297.297C283.884 297.582 283.741 297.725 283.455 297.725H281.268C280.982 297.725 280.839 297.582 280.839 297.297V270.574C280.839 270.46 280.781 270.403 280.667 270.403H272.603C272.317 270.403 272.174 270.26 272.174 269.974V268.13C272.174 267.844 272.317 267.701 272.603 267.701H292.463Z" fill="black"/>
<path d="M259.636 297.725C259.378 297.725 259.207 297.625 259.121 297.425L252.816 284.129C252.787 284.043 252.73 284 252.644 284H245.352C245.238 284 245.181 284.057 245.181 284.171V297.297C245.181 297.582 245.038 297.725 244.752 297.725H242.564C242.278 297.725 242.135 297.582 242.135 297.297V268.13C242.135 267.844 242.278 267.701 242.564 267.701H253.674C256.133 267.701 258.12 268.473 259.636 270.017C261.151 271.532 261.909 273.52 261.909 275.979C261.909 277.981 261.366 279.682 260.279 281.083C259.192 282.484 257.72 283.385 255.861 283.785C255.747 283.843 255.718 283.914 255.775 284L262.209 297.211C262.238 297.268 262.252 297.339 262.252 297.425C262.252 297.625 262.138 297.725 261.909 297.725H259.636ZM245.352 270.36C245.238 270.36 245.181 270.417 245.181 270.532V281.383C245.181 281.498 245.238 281.555 245.352 281.555H253.33C254.989 281.555 256.333 281.04 257.362 280.011C258.392 278.981 258.906 277.637 258.906 275.979C258.906 274.32 258.392 272.976 257.362 271.947C256.333 270.889 254.989 270.36 253.33 270.36H245.352Z" fill="black"/>
<path d="M218.713 298.069C216.683 298.069 214.896 297.654 213.352 296.825C211.807 295.995 210.606 294.837 209.749 293.35C208.919 291.835 208.505 290.091 208.505 288.118V277.309C208.505 275.336 208.919 273.606 209.749 272.119C210.606 270.603 211.807 269.431 213.352 268.601C214.896 267.772 216.683 267.358 218.713 267.358C220.743 267.358 222.531 267.772 224.075 268.601C225.647 269.431 226.848 270.603 227.678 272.119C228.535 273.606 228.964 275.336 228.964 277.309V288.118C228.964 290.091 228.535 291.835 227.678 293.35C226.848 294.837 225.647 295.995 224.075 296.825C222.531 297.654 220.743 298.069 218.713 298.069ZM218.713 295.452C220.886 295.452 222.631 294.794 223.946 293.479C225.261 292.164 225.919 290.419 225.919 288.246V277.266C225.919 275.092 225.261 273.348 223.946 272.033C222.631 270.689 220.886 270.017 218.713 270.017C216.568 270.017 214.838 270.689 213.523 272.033C212.208 273.348 211.55 275.092 211.55 277.266V288.246C211.55 290.419 212.208 292.164 213.523 293.479C214.838 294.794 216.568 295.452 218.713 295.452Z" fill="black"/>
<path d="M189.469 267.658C191.985 267.658 194.001 268.43 195.517 269.974C197.061 271.518 197.833 273.548 197.833 276.065C197.833 278.552 197.047 280.554 195.474 282.07C193.93 283.585 191.885 284.343 189.34 284.343H180.976C180.862 284.343 180.805 284.4 180.805 284.515V297.297C180.805 297.582 180.662 297.725 180.376 297.725H178.188C177.902 297.725 177.759 297.582 177.759 297.297V268.087C177.759 267.801 177.902 267.658 178.188 267.658H189.469ZM189.126 281.812C190.813 281.812 192.186 281.298 193.244 280.268C194.302 279.21 194.831 277.823 194.831 276.108C194.831 274.363 194.302 272.962 193.244 271.904C192.186 270.846 190.813 270.317 189.126 270.317H180.976C180.862 270.317 180.805 270.374 180.805 270.489V281.641C180.805 281.755 180.862 281.812 180.976 281.812H189.126Z" fill="black"/>
<path d="M148.7 297.725C148.442 297.725 148.271 297.625 148.185 297.425L141.88 284.129C141.851 284.043 141.794 284 141.708 284H134.416C134.302 284 134.245 284.057 134.245 284.171V297.297C134.245 297.582 134.102 297.725 133.816 297.725H131.628C131.342 297.725 131.199 297.582 131.199 297.297V268.13C131.199 267.844 131.342 267.701 131.628 267.701H142.738C145.197 267.701 147.184 268.473 148.7 270.017C150.215 271.532 150.973 273.52 150.973 275.979C150.973 277.981 150.43 279.682 149.343 281.083C148.256 282.484 146.784 283.385 144.925 283.785C144.811 283.843 144.782 283.914 144.839 284L151.273 297.211C151.302 297.268 151.316 297.339 151.316 297.425C151.316 297.625 151.202 297.725 150.973 297.725H148.7ZM134.416 270.36C134.302 270.36 134.245 270.417 134.245 270.532V281.383C134.245 281.498 134.302 281.555 134.416 281.555H142.394C144.053 281.555 145.397 281.04 146.426 280.011C147.456 278.981 147.97 277.637 147.97 275.979C147.97 274.32 147.456 272.976 146.426 271.947C145.397 270.889 144.053 270.36 142.394 270.36H134.416Z" fill="black"/>
<path d="M114.201 268.13C114.201 267.844 114.344 267.701 114.63 267.701H116.818C117.104 267.701 117.247 267.844 117.247 268.13V297.297C117.247 297.582 117.104 297.725 116.818 297.725H114.63C114.344 297.725 114.201 297.582 114.201 297.297V284.129C114.201 284.014 114.144 283.957 114.03 283.957H100.347C100.233 283.957 100.175 284.014 100.175 284.129V297.297C100.175 297.582 100.032 297.725 99.7465 297.725H97.559C97.273 297.725 97.1301 297.582 97.1301 297.297V268.13C97.1301 267.844 97.273 267.701 97.559 267.701H99.7465C100.032 267.701 100.175 267.844 100.175 268.13V281.126C100.175 281.24 100.233 281.298 100.347 281.298H114.03C114.144 281.298 114.201 281.24 114.201 281.126V268.13Z" fill="black"/>
<defs>
<linearGradient id="paint0_linear_137_287" x1="66.3522" y1="250.153" x2="167.763" y2="-55.2765" gradientUnits="userSpaceOnUse">
<stop stop-color="#D6BF9A"/>
<stop offset="1" stop-color="#745E39"/>
</linearGradient>
</defs>
</svg>
