<svg width="356" height="299" viewBox="0 0 356 299" fill="none" xmlns="http://www.w3.org/2000/svg">
<path d="M170.184 51.2363L66.124 298.376H63.1906L72.3562 276.378L0 105.869L28.5309 105.486L76.7531 220.014L149.087 42.1946L134.017 33.1529L182.239 0L185.253 57.264L170.184 51.2363Z" fill="url(#paint0_linear_137_268)"/>
<path d="M340.759 237.389C340.278 237.389 339.956 237.148 339.796 236.666L332.812 214.429C332.705 214.215 332.544 214.108 332.33 214.108H325.105C324.837 214.108 324.704 214.242 324.704 214.51L321.974 236.426C321.921 236.693 321.787 236.934 321.573 237.148C321.412 237.309 321.198 237.389 320.931 237.389H311.779C311.511 237.389 311.297 237.309 311.137 237.148C310.976 236.934 310.923 236.693 310.976 236.426L317.639 182.158C317.693 181.89 317.8 181.676 317.96 181.515C318.174 181.301 318.415 181.194 318.683 181.194H341C345.549 181.194 349.135 182.479 351.757 185.048C354.38 187.617 355.691 191.069 355.691 195.404C355.691 195.939 355.637 196.849 355.53 198.133C355.102 201.772 353.844 204.903 351.757 207.526C349.67 210.094 346.994 211.914 343.729 212.984C343.408 213.091 343.301 213.279 343.408 213.546L351.195 236.265C351.249 236.372 351.276 236.506 351.276 236.666C351.276 237.148 350.981 237.389 350.393 237.389H340.759ZM327.915 190.908C327.808 190.908 327.701 190.962 327.594 191.069C327.54 191.122 327.513 191.202 327.513 191.309L325.828 205.037C325.828 205.305 325.935 205.438 326.149 205.438H336.344C338.752 205.438 340.759 204.689 342.365 203.191C343.97 201.638 344.773 199.658 344.773 197.25C344.773 195.323 344.158 193.798 342.927 192.674C341.749 191.497 340.17 190.908 338.19 190.908H327.915Z" fill="#C7B08B"/>
<path d="M280.989 238.272C275.423 238.272 270.981 236.72 267.663 233.616C264.398 230.458 262.766 226.257 262.766 221.012C262.766 220.049 262.846 219.005 263.007 217.881L265.094 200.702C265.576 196.742 266.86 193.236 268.947 190.186C271.035 187.135 273.711 184.78 276.975 183.121C280.293 181.408 283.986 180.552 288.054 180.552C293.673 180.552 298.115 182.104 301.38 185.208C304.698 188.312 306.357 192.433 306.357 197.571C306.357 198.588 306.277 199.632 306.116 200.702L304.029 217.881C303.547 221.895 302.263 225.454 300.176 228.558C298.088 231.609 295.386 233.99 292.068 235.703C288.749 237.416 285.057 238.272 280.989 238.272ZM282.193 228.558C285.083 228.558 287.492 227.622 289.418 225.749C291.399 223.875 292.603 221.387 293.031 218.283L295.198 200.622C295.252 200.247 295.279 199.685 295.279 198.936C295.279 196.26 294.529 194.146 293.031 192.594C291.532 191.042 289.472 190.266 286.849 190.266C284.013 190.266 281.605 191.229 279.624 193.156C277.644 195.029 276.467 197.518 276.092 200.622L273.925 218.283C273.871 218.657 273.844 219.219 273.844 219.969C273.844 222.591 274.594 224.678 276.092 226.23C277.591 227.782 279.624 228.558 282.193 228.558Z" fill="#C7B08B"/>
<path d="M262.119 181.194C262.386 181.194 262.601 181.301 262.761 181.515C262.922 181.676 262.975 181.89 262.922 182.158L261.958 190.025C261.958 190.293 261.851 190.533 261.637 190.747C261.423 190.908 261.182 190.988 260.915 190.988H247.027C246.813 190.988 246.652 191.122 246.545 191.39L241.006 236.426C240.952 236.693 240.818 236.934 240.604 237.148C240.444 237.309 240.23 237.389 239.962 237.389H230.891C230.623 237.389 230.409 237.309 230.249 237.148C230.088 236.934 230.034 236.693 230.088 236.426L235.547 191.39C235.654 191.122 235.547 190.988 235.226 190.988H221.659C221.391 190.988 221.177 190.908 221.017 190.747C220.856 190.533 220.802 190.293 220.856 190.025L221.819 182.158C221.873 181.89 221.98 181.676 222.14 181.515C222.355 181.301 222.595 181.194 222.863 181.194H262.119Z" fill="#C7B08B"/>
<path d="M189.144 238.031C183.578 238.031 179.189 236.533 175.978 233.536C172.767 230.539 171.161 226.525 171.161 221.494C171.161 220.209 171.215 219.219 171.322 218.524L173.57 199.979C174.051 196.126 175.309 192.728 177.343 189.784C179.377 186.841 182.026 184.566 185.29 182.96C188.555 181.355 192.194 180.552 196.208 180.552C201.774 180.552 206.163 181.997 209.374 184.887C212.638 187.777 214.271 191.631 214.271 196.447C214.271 197.036 214.217 197.919 214.11 199.096C214.003 199.632 213.655 199.926 213.067 199.979L203.915 200.541H203.754C203.219 200.541 203.005 200.247 203.112 199.658C203.166 199.337 203.192 198.882 203.192 198.294C203.192 195.832 202.443 193.878 200.945 192.433C199.5 190.988 197.519 190.266 195.004 190.266C192.221 190.266 189.866 191.149 187.94 192.915C186.066 194.628 184.969 196.875 184.648 199.658L182.24 219.005C182.186 219.326 182.16 219.781 182.16 220.37C182.16 222.778 182.882 224.705 184.327 226.15C185.772 227.595 187.779 228.318 190.348 228.318C193.131 228.318 195.459 227.461 197.332 225.749C199.205 224.036 200.329 221.788 200.704 219.005C200.811 218.417 201.159 218.122 201.747 218.122L210.819 218.524C211.086 218.524 211.3 218.604 211.461 218.764C211.622 218.871 211.675 219.059 211.622 219.326C211.193 223.019 209.962 226.284 207.929 229.12C205.895 231.957 203.246 234.151 199.981 235.703C196.77 237.255 193.158 238.031 189.144 238.031Z" fill="#C7B08B"/>
<path d="M167.438 189.945C167.384 190.212 167.251 190.453 167.037 190.667C166.876 190.828 166.662 190.908 166.394 190.908H140.786C140.679 190.908 140.572 190.962 140.465 191.069C140.411 191.122 140.384 191.202 140.384 191.309L138.859 203.752C138.859 204.02 138.966 204.154 139.18 204.154H155.958C156.226 204.154 156.44 204.261 156.6 204.475C156.761 204.636 156.815 204.85 156.761 205.117L155.798 212.904C155.744 213.172 155.61 213.413 155.396 213.627C155.236 213.787 155.022 213.867 154.754 213.867H137.976C137.708 213.867 137.575 214.001 137.575 214.269L135.969 227.274C135.969 227.541 136.076 227.675 136.29 227.675H161.819C162.407 227.675 162.702 227.996 162.702 228.639L161.738 236.426C161.685 236.693 161.551 236.934 161.337 237.148C161.176 237.309 160.962 237.389 160.695 237.389H124.65C124.382 237.389 124.168 237.309 124.008 237.148C123.847 236.934 123.794 236.693 123.847 236.426L130.51 182.158C130.564 181.89 130.671 181.676 130.831 181.515C131.045 181.301 131.286 181.194 131.554 181.194H167.518C167.786 181.194 168 181.301 168.16 181.515C168.375 181.676 168.455 181.89 168.401 182.158L167.438 189.945Z" fill="#C7B08B"/>
<path d="M352.337 287.726C352.178 287.726 352.069 287.656 352.01 287.517L347.846 278.626C347.826 278.566 347.787 278.537 347.727 278.537H343.445C343.366 278.537 343.326 278.576 343.326 278.656V287.428C343.326 287.626 343.227 287.726 343.029 287.726H340.769C340.571 287.726 340.471 287.626 340.471 287.428V267.207C340.471 267.009 340.571 266.909 340.769 266.909H348.768C349.958 266.909 350.998 267.157 351.891 267.653C352.803 268.148 353.506 268.842 354.002 269.734C354.498 270.627 354.745 271.657 354.745 272.827C354.745 274.215 354.379 275.394 353.645 276.366C352.931 277.318 351.93 277.962 350.642 278.299C350.562 278.338 350.543 278.388 350.582 278.448L354.894 287.369C354.914 287.408 354.924 287.458 354.924 287.517C354.924 287.656 354.845 287.726 354.686 287.726H352.337ZM343.445 269.378C343.366 269.378 343.326 269.417 343.326 269.497V276.158C343.326 276.237 343.366 276.277 343.445 276.277H348.411C349.462 276.277 350.305 275.969 350.939 275.355C351.573 274.72 351.891 273.888 351.891 272.857C351.891 271.806 351.573 270.964 350.939 270.329C350.305 269.695 349.462 269.378 348.411 269.378H343.445Z" fill="black"/>
<path d="M332.363 269.08C332.363 269.279 332.264 269.378 332.066 269.378H321.509C321.43 269.378 321.39 269.417 321.39 269.497V275.89C321.39 275.969 321.43 276.009 321.509 276.009H328.765C328.963 276.009 329.063 276.108 329.063 276.306V278.18C329.063 278.378 328.963 278.477 328.765 278.477H321.509C321.43 278.477 321.39 278.517 321.39 278.596V285.138C321.39 285.218 321.43 285.257 321.509 285.257H332.066C332.264 285.257 332.363 285.356 332.363 285.555V287.428C332.363 287.626 332.264 287.726 332.066 287.726H318.833C318.635 287.726 318.535 287.626 318.535 287.428V267.207C318.535 267.009 318.635 266.909 318.833 266.909H332.066C332.264 266.909 332.363 267.009 332.363 267.207V269.08Z" fill="black"/>
<path d="M296.345 287.726C296.147 287.726 296.048 287.626 296.048 287.428V267.207C296.048 267.009 296.147 266.909 296.345 266.909H298.605C298.803 266.909 298.903 267.009 298.903 267.207V276.693C298.903 276.733 298.922 276.762 298.962 276.782C299.002 276.782 299.031 276.762 299.051 276.723L307.556 267.088C307.635 266.969 307.754 266.909 307.913 266.909H310.5C310.619 266.909 310.698 266.949 310.738 267.028C310.778 267.088 310.758 267.167 310.679 267.266L303.601 275.622C303.581 275.682 303.581 275.741 303.601 275.801L311.184 287.369C311.224 287.448 311.244 287.508 311.244 287.547C311.244 287.666 311.164 287.726 311.006 287.726H308.419C308.28 287.726 308.161 287.666 308.062 287.547L301.638 277.823C301.619 277.783 301.589 277.764 301.549 277.764C301.51 277.764 301.48 277.773 301.46 277.793L298.962 280.589C298.922 280.668 298.903 280.717 298.903 280.737V287.428C298.903 287.626 298.803 287.726 298.605 287.726H296.345Z" fill="black"/>
<path d="M280.512 287.993C279.085 287.993 277.816 287.716 276.706 287.161C275.616 286.586 274.763 285.783 274.148 284.752C273.554 283.701 273.256 282.502 273.256 281.154V273.452C273.256 272.104 273.554 270.924 274.148 269.913C274.763 268.882 275.616 268.089 276.706 267.534C277.816 266.959 279.085 266.672 280.512 266.672C281.94 266.672 283.199 266.949 284.289 267.504C285.379 268.039 286.222 268.803 286.817 269.794C287.431 270.785 287.738 271.935 287.738 273.243V273.273C287.738 273.372 287.709 273.452 287.649 273.511C287.59 273.571 287.52 273.6 287.441 273.6L285.181 273.719C284.983 273.719 284.884 273.63 284.884 273.452V273.362C284.884 272.094 284.487 271.073 283.694 270.299C282.901 269.526 281.841 269.14 280.512 269.14C279.184 269.14 278.113 269.526 277.301 270.299C276.508 271.073 276.111 272.094 276.111 273.362V281.273C276.111 282.541 276.508 283.562 277.301 284.336C278.113 285.109 279.184 285.495 280.512 285.495C281.841 285.495 282.901 285.109 283.694 284.336C284.487 283.562 284.884 282.541 284.884 281.273V281.213C284.884 281.035 284.983 280.945 285.181 280.945L287.441 281.064C287.639 281.064 287.738 281.164 287.738 281.362C287.738 282.67 287.431 283.83 286.817 284.841C286.222 285.832 285.379 286.605 284.289 287.161C283.199 287.716 281.94 287.993 280.512 287.993Z" fill="black"/>
<path d="M264.001 287.726C263.823 287.726 263.704 287.646 263.644 287.488L262.574 284.008C262.554 283.949 262.514 283.919 262.455 283.919H254.099C254.039 283.919 253.999 283.949 253.98 284.008L252.909 287.488C252.85 287.646 252.731 287.726 252.552 287.726H250.143C249.925 287.726 249.846 287.617 249.906 287.398L256.418 267.147C256.478 266.989 256.596 266.909 256.775 266.909H259.749C259.927 266.909 260.046 266.989 260.105 267.147L266.677 287.398L266.707 287.517C266.707 287.656 266.618 287.726 266.44 287.726H264.001ZM254.723 281.51C254.703 281.55 254.703 281.59 254.723 281.629C254.763 281.649 254.802 281.659 254.842 281.659H261.682C261.721 281.659 261.751 281.649 261.771 281.629C261.81 281.59 261.82 281.55 261.801 281.51L258.351 270.478C258.331 270.438 258.301 270.418 258.262 270.418C258.222 270.418 258.192 270.438 258.173 270.478L254.723 281.51Z" fill="black"/>
<path d="M239.956 287.726C239.797 287.726 239.688 287.656 239.629 287.517L235.466 278.626C235.446 278.566 235.406 278.537 235.347 278.537H231.065C230.985 278.537 230.946 278.576 230.946 278.656V287.428C230.946 287.626 230.847 287.726 230.648 287.726H228.388C228.19 287.726 228.091 287.626 228.091 287.428V267.207C228.091 267.009 228.19 266.909 228.388 266.909H236.388C237.577 266.909 238.618 267.157 239.51 267.653C240.422 268.148 241.126 268.842 241.621 269.734C242.117 270.627 242.365 271.657 242.365 272.827C242.365 274.215 241.998 275.394 241.265 276.366C240.551 277.318 239.55 277.962 238.261 278.299C238.182 278.338 238.162 278.388 238.202 278.448L242.514 287.369C242.533 287.408 242.543 287.458 242.543 287.517C242.543 287.656 242.464 287.726 242.305 287.726H239.956ZM231.065 269.378C230.985 269.378 230.946 269.417 230.946 269.497V276.158C230.946 276.237 230.985 276.277 231.065 276.277H236.031C237.081 276.277 237.924 275.969 238.558 275.355C239.193 274.72 239.51 273.888 239.51 272.857C239.51 271.806 239.193 270.964 238.558 270.329C237.924 269.695 237.081 269.378 236.031 269.378H231.065Z" fill="black"/>
<path d="M220.085 266.909C220.283 266.909 220.382 267.009 220.382 267.207V269.11C220.382 269.308 220.283 269.407 220.085 269.407H214.375C214.296 269.407 214.257 269.447 214.257 269.526V287.428C214.257 287.626 214.157 287.726 213.959 287.726H211.699C211.501 287.726 211.402 287.626 211.402 287.428V269.526C211.402 269.447 211.362 269.407 211.283 269.407H205.841C205.643 269.407 205.543 269.308 205.543 269.11V267.207C205.543 267.009 205.643 266.909 205.841 266.909H220.085Z" fill="black"/>
<path d="M188.73 266.909C188.928 266.909 189.027 267.009 189.027 267.207V269.11C189.027 269.308 188.928 269.407 188.73 269.407H183.02C182.941 269.407 182.901 269.447 182.901 269.526V287.428C182.901 287.626 182.802 287.726 182.604 287.726H180.344C180.145 287.726 180.046 287.626 180.046 287.428V269.526C180.046 269.447 180.007 269.407 179.927 269.407H174.485C174.287 269.407 174.188 269.308 174.188 269.11V267.207C174.188 267.009 174.287 266.909 174.485 266.909H188.73Z" fill="black"/>
<path d="M167.388 269.08C167.388 269.279 167.289 269.378 167.091 269.378H156.534C156.455 269.378 156.415 269.417 156.415 269.497V275.89C156.415 275.969 156.455 276.009 156.534 276.009H163.79C163.988 276.009 164.087 276.108 164.087 276.306V278.18C164.087 278.378 163.988 278.477 163.79 278.477H156.534C156.455 278.477 156.415 278.517 156.415 278.596V285.138C156.415 285.218 156.455 285.257 156.534 285.257H167.091C167.289 285.257 167.388 285.356 167.388 285.555V287.428C167.388 287.626 167.289 287.726 167.091 287.726H153.858C153.66 287.726 153.56 287.626 153.56 287.428V267.207C153.56 267.009 153.66 266.909 153.858 266.909H167.091C167.289 266.909 167.388 267.009 167.388 267.207V269.08Z" fill="black"/>
<path d="M138.338 287.963C136.812 287.963 135.483 287.726 134.353 287.25C133.243 286.774 132.381 286.1 131.766 285.228C131.171 284.355 130.874 283.334 130.874 282.165V281.302C130.874 281.104 130.973 281.005 131.171 281.005H133.342C133.54 281.005 133.64 281.104 133.64 281.302V282.016C133.64 283.027 134.076 283.86 134.948 284.514C135.82 285.168 137.02 285.495 138.546 285.495C139.914 285.495 140.945 285.208 141.639 284.633C142.333 284.058 142.68 283.305 142.68 282.373C142.68 281.758 142.501 281.233 142.145 280.797C141.788 280.361 141.262 279.964 140.568 279.607C139.894 279.231 138.903 278.785 137.595 278.269C136.147 277.714 134.998 277.208 134.145 276.752C133.313 276.296 132.619 275.702 132.064 274.968C131.508 274.215 131.231 273.273 131.231 272.143C131.231 270.438 131.836 269.1 133.045 268.129C134.274 267.157 135.929 266.672 138.011 266.672C139.478 266.672 140.767 266.919 141.877 267.415C142.987 267.911 143.84 268.604 144.434 269.497C145.049 270.389 145.356 271.42 145.356 272.589V273.184C145.356 273.382 145.257 273.481 145.059 273.481H142.828C142.63 273.481 142.531 273.382 142.531 273.184V272.738C142.531 271.707 142.115 270.855 141.282 270.181C140.469 269.487 139.339 269.14 137.892 269.14C136.663 269.14 135.711 269.397 135.037 269.913C134.363 270.408 134.026 271.132 134.026 272.084C134.026 272.738 134.195 273.273 134.532 273.69C134.869 274.106 135.364 274.483 136.019 274.82C136.693 275.137 137.714 275.553 139.082 276.069C140.489 276.624 141.629 277.139 142.501 277.615C143.374 278.071 144.097 278.685 144.672 279.459C145.247 280.212 145.535 281.154 145.535 282.284C145.535 284.028 144.89 285.416 143.602 286.447C142.333 287.458 140.578 287.963 138.338 287.963Z" fill="black"/>
<path d="M116.693 287.963C115.166 287.963 113.838 287.726 112.708 287.25C111.598 286.774 110.735 286.1 110.121 285.228C109.526 284.355 109.228 283.334 109.228 282.165V281.302C109.228 281.104 109.328 281.005 109.526 281.005H111.697C111.895 281.005 111.994 281.104 111.994 281.302V282.016C111.994 283.027 112.43 283.86 113.303 284.514C114.175 285.168 115.374 285.495 116.901 285.495C118.269 285.495 119.3 285.208 119.993 284.633C120.687 284.058 121.034 283.305 121.034 282.373C121.034 281.758 120.856 281.233 120.499 280.797C120.142 280.361 119.617 279.964 118.923 279.607C118.249 279.231 117.258 278.785 115.949 278.269C114.502 277.714 113.352 277.208 112.5 276.752C111.667 276.296 110.973 275.702 110.418 274.968C109.863 274.215 109.585 273.273 109.585 272.143C109.585 270.438 110.19 269.1 111.399 268.129C112.628 267.157 114.284 266.672 116.365 266.672C117.833 266.672 119.121 266.919 120.231 267.415C121.342 267.911 122.194 268.604 122.789 269.497C123.403 270.389 123.711 271.42 123.711 272.589V273.184C123.711 273.382 123.611 273.481 123.413 273.481H121.183C120.985 273.481 120.886 273.382 120.886 273.184V272.738C120.886 271.707 120.469 270.855 119.637 270.181C118.824 269.487 117.694 269.14 116.247 269.14C115.017 269.14 114.066 269.397 113.392 269.913C112.718 270.408 112.381 271.132 112.381 272.084C112.381 272.738 112.549 273.273 112.886 273.69C113.223 274.106 113.719 274.483 114.373 274.82C115.047 275.137 116.068 275.553 117.436 276.069C118.844 276.624 119.984 277.139 120.856 277.615C121.728 278.071 122.452 278.685 123.027 279.459C123.602 280.212 123.889 281.154 123.889 282.284C123.889 284.028 123.245 285.416 121.956 286.447C120.687 287.458 118.933 287.963 116.693 287.963Z" fill="black"/>
<path d="M101.175 287.726C100.997 287.726 100.878 287.646 100.818 287.488L99.7476 284.008C99.7278 283.949 99.6881 283.919 99.6287 283.919H91.2725C91.213 283.919 91.1733 283.949 91.1535 284.008L90.083 287.488C90.0235 287.646 89.9045 287.726 89.7261 287.726H87.3174C87.0993 287.726 87.02 287.617 87.0795 287.398L93.592 267.147C93.6514 266.989 93.7704 266.909 93.9488 266.909H96.9226C97.101 266.909 97.2199 266.989 97.2794 267.147L103.851 287.398L103.881 287.517C103.881 287.656 103.792 287.726 103.613 287.726H101.175ZM91.8969 281.51C91.8771 281.55 91.8771 281.59 91.8969 281.629C91.9366 281.649 91.9762 281.659 92.0159 281.659H98.8555C98.8951 281.659 98.9249 281.649 98.9447 281.629C98.9843 281.59 98.9943 281.55 98.9744 281.51L95.5249 270.478C95.5051 270.438 95.4753 270.418 95.4357 270.418C95.396 270.418 95.3663 270.438 95.3465 270.478L91.8969 281.51Z" fill="black"/>
<defs>
<linearGradient id="paint0_linear_137_268" x1="66.3522" y1="250.153" x2="167.763" y2="-55.2765" gradientUnits="userSpaceOnUse">
<stop stop-color="#D6BF9A"/>
<stop offset="1" stop-color="#745E39"/>
</linearGradient>
</defs>
</svg>
